<svg width="114" height="43" viewBox="0 0 114 43" fill="none" xmlns="http://www.w3.org/2000/svg">
<path d="M19.8438 0.819336V8.96928C19.8438 10.2424 19.6441 11.4691 19.2742 12.6191C19.1297 13.0675 18.9599 13.504 18.7656 13.9276C17.5962 16.4757 15.5536 18.5325 13.024 19.7103C12.6055 19.9047 12.1747 20.0755 11.731 20.2205C11.7281 20.221 11.7252 20.2229 11.7222 20.2234C10.5844 20.594 9.36938 20.7943 8.10924 20.7943H0C0.153971 17.8727 0.896705 15.1084 2.11121 12.6197H5.97998L3.52876 10.1523C5.05114 7.87046 7.00422 5.90438 9.271 4.37084L11.7229 6.83887V2.94385C14.1951 1.72134 16.9413 0.974299 19.8438 0.819336Z" fill="#020202"/>
<path d="M19.8438 34.8364V43.0003C16.9407 42.8454 14.1939 42.0983 11.7217 40.8753V36.9815L9.26989 39.4494C7.00358 37.9159 5.04995 35.9493 3.52757 33.668L5.97879 31.2006H2.11113C0.896066 28.7114 0.153971 25.947 0 23.0254H8.09632C9.36175 23.0254 10.5803 23.2263 11.7222 23.5986C12.1677 23.7442 12.6025 23.915 13.0228 24.1106C15.5536 25.2878 17.5974 27.3439 18.7674 29.8904C18.9605 30.311 19.1297 30.7452 19.2737 31.1918C19.2748 31.1947 19.276 31.1976 19.2766 31.2006C19.6453 32.346 19.8443 33.5678 19.8443 34.8369L19.8438 34.8364Z" fill="#020202"/>
<path d="M39.7972 31.2002H35.929L38.3801 33.6676C36.8578 35.9494 34.9047 37.9155 32.6378 39.4485L30.1861 36.981V40.8748C27.7138 42.0973 24.9676 42.8456 22.064 42.9993V34.8495C22.064 33.5757 22.2636 32.349 22.634 31.1996C22.7774 30.7513 22.9483 30.3141 23.1421 29.8905C24.3115 27.3429 26.3541 25.2856 28.8837 24.1079C29.3022 23.9135 29.7336 23.7431 30.1767 23.5988C30.1802 23.5976 30.1831 23.5964 30.1861 23.5959C31.3244 23.2246 32.5378 23.0244 33.7985 23.0244H41.9088C41.7549 25.9466 41.0128 28.7116 39.7977 31.2002H39.7972Z" fill="#020202"/>
<path d="M41.9082 20.7943H33.8114C32.5465 20.7943 31.3279 20.5934 30.1854 20.221C29.74 20.0755 29.3064 19.9041 28.8855 19.7091C26.3541 18.5319 24.3109 16.4757 23.1409 13.9294C22.9478 13.5082 22.778 13.0739 22.634 12.6279C22.6335 12.625 22.6317 12.6215 22.6311 12.6185C22.2629 11.4732 22.064 10.2512 22.064 8.98216V0.819336C24.9664 0.974299 27.7126 1.72134 30.1849 2.94385V6.83768L32.6366 4.37028C34.9035 5.90327 36.8566 7.86926 38.3789 10.1511L35.9278 12.6185H39.796C41.011 15.1072 41.7537 17.8715 41.9071 20.7943H41.9082Z" fill="#020202"/>
<path d="M56.3562 10V10.0977C56.3236 10.179 56.2992 10.3011 56.283 10.4639C56.2667 10.6266 56.2585 10.7731 56.2585 10.9033C56.2585 11.4079 56.3318 11.9694 56.4783 12.5879C56.6248 13.1901 56.8852 13.9469 57.2595 14.8584L63.0945 28.75L69.0027 15.0537C69.2468 14.4515 69.5072 13.7923 69.7839 13.0762C70.0606 12.36 70.199 11.6357 70.199 10.9033C70.199 10.6917 70.1827 10.5208 70.1501 10.3906C70.1176 10.2441 70.085 10.1465 70.0525 10.0977V10H74.447V10.0977C74.1541 10.4069 73.7797 10.9603 73.324 11.7578C72.8845 12.5391 72.4125 13.5238 71.908 14.7119L62.8992 35.3418H61.4587L53.1091 15.9082C52.8162 15.1921 52.4988 14.5085 52.157 13.8574C51.8315 13.1901 51.5141 12.596 51.2048 12.0752C50.9119 11.5544 50.6514 11.123 50.4236 10.7812C50.1957 10.4232 50.0411 10.1953 49.9597 10.0977V10H56.3562ZM78.0359 19.5459C78.0359 18.1624 78.0115 16.958 77.9626 15.9326C77.9301 14.891 77.8813 13.9958 77.8162 13.2471C77.7673 12.4984 77.6941 11.8717 77.5964 11.3672C77.5151 10.8626 77.4255 10.4395 77.3279 10.0977V10H82.9675V10.0977C82.8699 10.4395 82.7804 10.8626 82.699 11.3672C82.6176 11.8717 82.5444 12.4984 82.4792 13.2471C82.4141 13.9958 82.3653 14.891 82.3328 15.9326C82.3002 16.958 82.2839 18.1624 82.2839 19.5459V25.4541C82.2839 26.8376 82.3002 28.0501 82.3328 29.0918C82.3653 30.1172 82.4141 31.0042 82.4792 31.7529C82.5444 32.5016 82.6176 33.1283 82.699 33.6328C82.7804 34.1374 82.8699 34.5605 82.9675 34.9023V35H77.3279V34.9023C77.4255 34.5605 77.5151 34.1374 77.5964 33.6328C77.6941 33.1283 77.7673 32.5016 77.8162 31.7529C77.8813 31.0042 77.9301 30.1172 77.9626 29.0918C78.0115 28.0501 78.0359 26.8376 78.0359 25.4541V19.5459ZM77.5232 2.60254C77.5232 2.24447 77.5883 1.91081 77.7185 1.60156C77.865 1.27604 78.0522 0.999349 78.28 0.771484C78.5079 0.527344 78.7764 0.340169 79.0857 0.209961C79.4112 0.0634766 79.7611 -0.00976562 80.1355 -0.00976562C80.5098 -0.00976562 80.8516 0.0634766 81.1609 0.209961C81.4864 0.340169 81.7631 0.527344 81.991 0.771484C82.2351 0.999349 82.4223 1.27604 82.5525 1.60156C82.699 1.91081 82.7722 2.24447 82.7722 2.60254C82.7722 3.35124 82.5199 3.97786 82.0154 4.48242C81.5108 4.98698 80.8842 5.23926 80.1355 5.23926C79.7611 5.23926 79.4112 5.17415 79.0857 5.04395C78.7764 4.89746 78.5079 4.71029 78.28 4.48242C78.0522 4.23828 77.865 3.96159 77.7185 3.65234C77.5883 3.32682 77.5232 2.97689 77.5232 2.60254ZM98.446 24.502L92.5867 31.8994C92.3751 32.1761 92.1554 32.4609 91.9275 32.7539C91.7159 33.0469 91.5206 33.3317 91.3416 33.6084C91.1788 33.8851 91.0404 34.1455 90.9265 34.3896C90.8289 34.6338 90.78 34.8372 90.78 35H86.6785V34.9023C86.9389 34.6745 87.297 34.3327 87.7527 33.877C88.2247 33.4212 88.7211 32.8597 89.2419 32.1924L96.9324 22.4512L89.3884 12.2461C88.9653 11.6927 88.5502 11.2207 88.1433 10.8301C87.7364 10.4395 87.4353 10.1953 87.24 10.0977V10H93.9294C93.9294 10.2767 94.0271 10.7161 94.2224 11.3184C94.434 11.9043 94.8409 12.6123 95.4431 13.4424L99.5935 19.1064L104.33 13.1006C104.525 12.8402 104.72 12.5635 104.916 12.2705C105.127 11.9775 105.306 11.6927 105.453 11.416C105.616 11.123 105.746 10.8545 105.844 10.6104C105.941 10.3662 105.99 10.1628 105.99 10H110.092V10.0977C109.864 10.2767 109.579 10.5371 109.237 10.8789C108.895 11.2207 108.448 11.7415 107.894 12.4414L101.083 21.1084L109.286 32.1924C109.839 32.9248 110.352 33.527 110.824 33.999C111.296 34.471 111.638 34.7721 111.849 34.9023V35H105.184C105.184 34.7233 105.079 34.2839 104.867 33.6816C104.655 33.0632 104.265 32.3551 103.695 31.5576L98.446 24.502Z" fill="#020202"/>
</svg>
